HIERARCHY
ROOT Hips
{
	OFFSET 0.000000 0.000000 0.000000
	CHANNELS 6 Xposition Yposition Zposition Xrotation Yrotation Zrotation
	JOINT LeftUpLeg_virtual
	{
		OFFSET 0.000000 0.000000 0.000000
		CHANNELS 3 Xrotation Yrotation Zrotation
		JOINT LeftUpLeg
		{
			OFFSET 10.205400 -3.823500 0.155100
			CHANNELS 3 Xrotation Yrotation Zrotation
			JOINT LeftLeg
			{
				OFFSET 0.708757 -12.982077 0.567790
				CHANNELS 3 Xrotation Yrotation Zrotation
				JOINT LeftFoot
				{
					OFFSET -0.708756 -10.717838 -2.184338
					CHANNELS 3 Xrotation Yrotation Zrotation
					JOINT LeftToeBase
					{
						OFFSET 0.108149 -7.191104 7.560241
						CHANNELS 3 Xrotation Yrotation Zrotation
						JOINT LeftToe_End
						{
							OFFSET 0.070230 0.081724 4.490308
							CHANNELS 3 Xrotation Yrotation Zrotation
							End Site
							{
								OFFSET 0 0 0
							}
						}
					}
				}
			}
		}
	}
	JOINT RightUpLeg_virtual
	{
		OFFSET 0.000000 0.000000 0.000000
		CHANNELS 3 Xrotation Yrotation Zrotation
		JOINT RightUpLeg
		{
			OFFSET -10.205400 -3.823500 0.005500
			CHANNELS 3 Xrotation Yrotation Zrotation
			JOINT RightLeg
			{
				OFFSET -0.708756 -12.982134 0.610632
				CHANNELS 3 Xrotation Yrotation Zrotation
				JOINT RightFoot
				{
					OFFSET 0.708754 -10.717769 -1.945823
					CHANNELS 3 Xrotation Yrotation Zrotation
					JOINT RightToeBase
					{
						OFFSET -0.108140 -7.191069 7.372968
						CHANNELS 3 Xrotation Yrotation Zrotation
						JOINT RightToe_End
						{
							OFFSET -0.070227 0.081735 4.479403
							CHANNELS 3 Xrotation Yrotation Zrotation
							End Site
							{
								OFFSET 0 0 0
							}
						}
					}
				}
			}
		}
	}
	JOINT Spine_virtual
	{
		OFFSET 0.000000 0.000000 0.000000
		CHANNELS 3 Xrotation Yrotation Zrotation
		JOINT Spine
		{
			OFFSET 0.000000 6.876099 0.125700
			CHANNELS 3 Xrotation Yrotation Zrotation
			JOINT Spine1
			{
				OFFSET 0.000000 5.730043 0.104720
				CHANNELS 3 Xrotation Yrotation Zrotation
				JOINT Spine1_split
				{
					OFFSET 0.000000 5.730043 0.104720
					CHANNELS 3 Xrotation Yrotation Zrotation
					JOINT Spine2
					{
						OFFSET 0.000000 5.730043 0.104720
						CHANNELS 3 Xrotation Yrotation Zrotation
						JOINT Neck_virtual
						{
							OFFSET 0.000000 0.000000 0.000000
							CHANNELS 3 Xrotation Yrotation Zrotation
							JOINT Neck
							{
								OFFSET 0.000000 10.314075 0.188496
								CHANNELS 3 Xrotation Yrotation Zrotation
								JOINT Head
								{
									OFFSET 0.000000 7.643700 -2.377400
									CHANNELS 3 Xrotation Yrotation Zrotation
									JOINT HeadTop_End
									{
										OFFSET 0.000000 43.788605 -13.619600
										CHANNELS 3 Xrotation Yrotation Zrotation
										End Site
										{
											OFFSET 0 0 0
										}
									}
								}
							}
						}
						JOINT LeftShoulder_virtual
						{
							OFFSET 0.000000 0.000000 0.000000
							CHANNELS 3 Xrotation Yrotation Zrotation
							JOINT LeftShoulder
							{
								OFFSET 2.196100 4.412489 0.087492
								CHANNELS 3 Xrotation Yrotation Zrotation
								JOINT LeftShoulder_split
								{
									OFFSET 2.196100 4.412489 0.087492
									CHANNELS 3 Xrotation Yrotation Zrotation
									JOINT LeftArm
									{
										OFFSET 8.771219 -2.981674 -0.026999
										CHANNELS 3 Xrotation Yrotation Zrotation
										JOINT LeftForeArm
										{
											OFFSET 8.512804 0.000000 -0.000000
											CHANNELS 3 Xrotation Yrotation Zrotation
											JOINT LeftHand
											{
												OFFSET 18.484802 0.000000 -0.000000
												CHANNELS 3 Xrotation Yrotation Zrotation
												End Site
												{
													OFFSET 0 0 0
												}
											}
										}
									}
								}
							}
						}
						JOINT RightShoulder_virtual
						{
							OFFSET 0.000000 0.000000 0.000000
							CHANNELS 3 Xrotation Yrotation Zrotation
							JOINT RightShoulder
							{
								OFFSET -2.196100 4.412496 0.070690
								CHANNELS 3 Xrotation Yrotation Zrotation
								JOINT RightShoulder_split
								{
									OFFSET -2.196100 4.412496 0.070690
									CHANNELS 3 Xrotation Yrotation Zrotation
									JOINT RightArm
									{
										OFFSET -8.771282 -2.981682 -0.094208
										CHANNELS 3 Xrotation Yrotation Zrotation
										JOINT RightForeArm
										{
											OFFSET -8.494598 0.000000 0.000000
											CHANNELS 3 Xrotation Yrotation Zrotation
											JOINT RightHand
											{
												OFFSET -18.483803 0.000000 0.000001
												CHANNELS 3 Xrotation Yrotation Zrotation
												End Site
												{
													OFFSET 0 0 0
												}
											}
										}
									}
								}
							}
						}
					}
				}
			}
		}
	}
}
MOTION
Frames: 7
Frame Time: 0.03333333
-0.163799 24.982193 -34.164101 0.000000 0.000000 0.000000 43.557100 -71.087325 33.787252 -67.999909 -18.532590 26.158117 47.945455 -7.917679 9.818586 9.477859 -1.412691 -24.551284 -3.048101 1.083695 2.160203 0.000000 0.000000 0.000000 44.507504 -72.107379 35.752475 -4.963350 3.108344 -37.933617 38.293056 4.599304 -1.540102 -8.269121 -36.705983 45.442130 0.067239 -0.407714 -3.598119 0.000000 0.000000 0.000000 39.666163 -67.623073 30.099957 2.456050 11.187408 -3.958175 -2.766816 5.122678 0.317358 0.823886 -3.191261 1.470072 0.000000 0.000000 0.000000 -1.491787 3.112036 0.852167 10.342249 4.704670 -5.796540 4.398530 17.838511 9.536255 0.000000 0.000000 0.000000 -2.400705 3.599044 0.752554 3.175476 3.217386 -12.344740 4.537693 1.254129 1.616117 -51.501112 -30.612382 -49.459773 -4.092421 -77.087427 -1.958974 0.000000 0.000000 0.000000 -2.485956 3.230605 0.815926 -13.741890 -1.592372 -1.325655 -1.889938 -1.540212 -1.313153 -105.705688 35.922441 120.692462 -2.586098 28.157926 2.434653 0.000000 0.000000 0.000000 
0.319252 25.339544 -37.400314 0.000000 0.000000 0.000000 46.712384 -71.671846 37.027350 -67.284637 -16.260259 26.416952 42.201533 -6.074820 9.102755 13.862134 -0.233829 -22.590296 -3.642598 0.956170 1.180499 0.000000 0.000000 0.000000 45.368589 -72.742717 37.114702 -12.169318 1.892417 -33.709217 46.382671 3.479391 0.507768 -13.107925 -35.014453 42.094254 1.013287 -0.521017 -3.988184 0.000000 0.000000 0.000000 41.276052 -68.299836 31.876995 2.223065 10.107494 -3.851521 -2.786158 4.478325 0.507513 0.754745 -2.409272 1.264616 0.000000 0.000000 0.000000 -1.376184 2.451203 1.113137 10.610281 5.194302 -5.958956 4.086598 19.017772 8.821936 0.000000 0.000000 0.000000 -2.346361 2.973853 1.001879 3.184004 3.227220 -12.351364 5.522152 1.632195 1.446293 -50.242264 -30.735421 -49.428129 -3.804185 -77.767031 -1.686266 0.000000 0.000000 0.000000 -2.431446 2.548932 1.031237 -13.783535 -1.831750 -1.872381 -1.172919 -1.173915 -1.706792 -105.563968 35.917479 120.779806 -2.812023 28.116218 2.576842 0.000000 0.000000 0.000000 
0.766745 25.736732 -40.192612 0.000000 0.000000 0.000000 48.853502 -71.937356 39.011848 -69.052017 -13.809008 25.723015 40.334787 -4.517685 7.580871 16.681564 0.163919 -19.137548 -4.258263 0.845910 0.339372 0.000000 0.000000 0.000000 46.016043 -73.003500 37.881558 -17.746682 -0.852784 -28.774634 51.573082 2.213033 2.476783 -18.247675 -33.395298 38.418813 1.385806 -0.610621 -3.651321 0.000000 0.000000 0.000000 43.604863 -68.791418 33.672389 1.842150 9.032942 -3.476135 -2.751499 3.688801 0.712926 0.714648 -1.401343 0.922997 0.000000 0.000000 0.000000 -1.314998 1.606794 1.377443 10.789823 5.633077 -6.141286 3.523074 20.301248 8.116813 0.000000 0.000000 0.000000 -2.279603 2.194871 1.250714 3.201144 3.216020 -12.252957 6.166239 2.293001 1.243320 -49.384990 -31.130404 -49.347147 -2.785334 -78.057963 -0.768285 0.000000 0.000000 0.000000 -2.387274 1.739324 1.259543 -13.897896 -2.055983 -2.456392 -0.583126 -0.948810 -2.182895 -106.144541 35.851526 121.403962 -3.121825 26.867659 2.692756 0.000000 0.000000 0.000000 
1.045381 26.121443 -42.322968 0.000000 0.000000 0.000000 49.367002 -71.649306 39.322106 -72.347659 -11.468018 24.089106 41.931033 -3.610296 5.668689 17.638142 -0.032367 -15.311781 -4.281961 0.782655 -0.165304 0.000000 0.000000 0.000000 45.937940 -72.702466 37.739302 -21.246775 -4.383471 -24.380435 53.707232 0.698358 4.108951 -22.763861 -31.932497 35.015545 1.245869 -0.681509 -2.780910 0.000000 0.000000 0.000000 45.800858 -69.117560 35.129825 1.405061 8.093943 -2.994975 -2.662564 2.960405 0.870259 0.721943 -0.359014 0.675948 0.000000 0.000000 0.000000 -1.329749 0.804214 1.538671 10.823771 5.939233 -6.318508 2.802159 21.401916 7.646342 0.000000 0.000000 0.000000 -2.217083 1.449615 1.413172 3.228344 3.291159 -12.026256 6.427938 3.201355 1.066209 -49.034287 -31.511385 -49.195841 -1.383269 -78.106335 0.473960 0.000000 0.000000 0.000000 -2.352565 0.994914 1.410955 -14.082809 -2.365979 -2.981960 -0.111318 -0.923007 -2.503003 -107.326970 35.908791 122.650253 -3.386754 25.213510 2.720943 0.000000 0.000000 0.000000 
1.173849 26.487667 -43.752411 0.000000 0.000000 0.000000 48.733267 -70.965843 38.505236 -75.818426 -9.534034 21.682041 45.424228 -3.643076 4.016564 17.361533 -0.833076 -12.818852 -4.066260 0.754821 -0.140368 0.000000 0.000000 0.000000 45.638774 -72.074301 37.329665 -23.032175 -7.637779 -21.240597 53.681991 -1.018279 5.299678 -26.622616 -30.680875 31.717886 1.414079 -0.745396 -1.876247 0.000000 0.000000 0.000000 47.681595 -69.413484 36.410318 1.046765 7.350682 -2.574806 -2.546718 2.446448 0.947643 0.821457 0.576415 0.720394 0.000000 0.000000 0.000000 -1.428685 0.227913 1.545957 10.703501 6.109874 -6.428503 2.099405 22.116842 7.485904 0.000000 0.000000 0.000000 -2.191775 0.896556 1.454139 3.237940 3.416188 -11.743068 6.383274 4.143761 1.024934 -49.094990 -31.667318 -48.906507 -0.211419 -78.034802 1.470656 0.000000 0.000000 0.000000 -2.334904 0.467705 1.458650 -14.291408 -2.832411 -3.313180 0.223555 -1.038552 -2.544160 -108.613101 36.153906 124.317584 -3.507778 24.030002 2.645958 0.000000 0.000000 0.000000 
1.134730 26.775711 -44.536133 0.000000 0.000000 0.000000 47.384830 -69.955125 37.109350 -78.595588 -8.079899 19.158991 49.075288 -4.185992 2.968887 16.329077 -1.690896 -11.737996 -3.808128 0.775458 0.088227 0.000000 0.000000 0.000000 45.817117 -71.209517 37.265051 -23.889418 -10.013368 -19.612507 52.416241 -2.612751 6.040413 -29.426371 -29.575778 29.111503 2.085169 -0.745943 -1.341068 0.000000 0.000000 0.000000 48.531011 -69.641982 37.069346 0.844903 6.853189 -2.312191 -2.447567 2.182231 0.959604 0.890424 1.071608 0.822396 0.000000 0.000000 0.000000 -1.576815 -0.041943 1.436564 10.554588 6.135357 -6.399678 1.560111 22.368721 7.627050 0.000000 0.000000 0.000000 -2.234238 0.600788 1.395689 3.219085 3.519641 -11.446542 6.148797 4.859091 1.101885 -49.332896 -31.543887 -48.483008 0.301096 -77.990092 1.825779 0.000000 0.000000 0.000000 -2.321557 0.216399 1.432536 -14.486017 -3.461320 -3.486149 0.362012 -1.331012 -2.304811 -109.577305 36.532892 125.947254 -3.455395 23.777470 2.487543 0.000000 0.000000 0.000000 
0.977850 26.991013 -44.839691 0.000000 0.000000 0.000000 46.214795 -69.025482 36.053662 -80.465912 -7.135701 17.136873 51.720395 -4.684965 2.637250 15.493531 -2.363951 -11.951325 -3.451957 0.816929 0.204436 0.000000 0.000000 0.000000 46.174971 -70.143912 37.270529 -24.322476 -11.285576 -19.183218 51.090467 -3.760398 6.325585 -31.064428 -28.706076 27.390877 2.693632 -0.792474 -1.308605 0.000000 0.000000 0.000000 47.651542 -69.753566 36.468398 0.931357 6.511311 -2.253564 -2.386442 2.112896 0.927712 0.857017 0.960141 1.218856 0.000000 0.000000 0.000000 -1.703299 -0.044779 1.302984 10.543147 6.056882 -6.184808 1.253353 22.104633 8.018476 0.000000 0.000000 0.000000 -2.308110 0.541373 1.292329 3.195750 3.636880 -11.195911 5.819117 5.178229 1.241557 -49.584346 -31.276754 -48.055893 0.067185 -77.994354 1.465191 0.000000 0.000000 0.000000 -2.303779 0.215512 1.395221 -14.650175 -4.162704 -3.520080 0.302449 -1.694724 -1.923564 -109.978128 36.866151 127.025823 -3.294969 24.277450 2.282781 0.000000 0.000000 0.000000 
